<?xml version="1.0" standalone="no"?><!DOCTYPE svg PUBLIC "-//W3C//DTD SVG 1.1//EN" "http://www.w3.org/Graphics/SVG/1.1/DTD/svg11.dtd"><svg t="1742023057167" class="icon" viewBox="0 0 1024 1024" version="1.1" xmlns="http://www.w3.org/2000/svg" p-id="4627" xmlns:xlink="http://www.w3.org/1999/xlink" width="200" height="200"><path d="M717.268599 49.469903c-88.147828-2.975994-156.881694-28.519944-198.053613-47.859906a16.971967 16.971967 0 0 0-14.427972 0c-41.17192 19.339962-109.905785 44.879912-198.053613 47.859906-93.927817 3.171994-169.16367-20.65196-215.691579-40.457921-11.283978-4.801991-23.787954 3.477993-23.787953 15.74197v486.569049c4.603991 50.455901 24.241953 193.119623 136.843732 325.005366 112.933779 132.273742 251.621509 174.345659 303.847407 187.179634a16.947967 16.947967 0 0 0 8.107984 0c52.225898-12.835975 190.913627-54.905893 303.847407-187.179634 112.60178-131.885742 132.241742-274.551464 136.843732-325.005366V24.753952c0-12.261976-12.503976-20.54396-23.787953-15.74197-46.521909 19.805961-121.759762 43.629915-215.687579 40.457921z" fill="#FFC552" p-id="4628"></path><path d="M512.005 953.868137c-62.531878-17.155966-168.559671-59.711883-255.8675-161.967684-90.643823-106.165793-114.429777-222.189566-120.457765-283.805445V97.07581c50.141902 14.023973 101.729801 21.101959 154.113699 21.101959 6.387988 0 12.865975-0.11 19.251962-0.325999 70.123863-2.365995 138.28773-17.349966 202.957604-44.571913 64.671874 27.223947 132.831741 42.203918 202.957604 44.571913 6.387988 0.218 12.867975 0.325999 19.253962 0.325999 52.383898 0 103.967797-7.077986 154.109699-21.101959v411.021198c-6.027988 61.61188-29.817942 177.637653-120.459765 283.803445-87.307829 102.2598-193.355622 144.817717-255.8595 161.967684z" fill="#D1CDB2" p-id="4629"></path><path d="M512.005 918.288206c-55.451892-16.489968-151.235705-56.52589-229.847551-148.599709-84.195836-98.617807-106.503792-206.629596-112.265781-263.293486V140.451726a607.402814 607.402814 0 0 0 140.315726 11.593977c69.431864-2.345995 137.243732-16.405968 201.793606-41.827918 64.547874 25.42195 132.361741 39.481923 201.803606 41.827918a607.184814 607.184814 0 0 0 140.309726-11.591977v365.941285c-5.759989 56.661889-28.067945 164.673678-112.265781 263.291486-78.619846 92.07982-174.397659 132.113742-229.843551 148.601709z" fill="#E8E6D9" p-id="4630"></path><path d="M512.003 169.20767c-132.047742 0-239.477532 107.42979-239.477532 239.477532s107.42979 239.477532 239.477532 239.477532 239.477532-107.42979 239.477532-239.477532S644.048742 169.20767 512.003 169.20767z" fill="#72CCC5" p-id="4631"></path><path d="M580.424866 579.742868c-132.047742 0-239.477532-107.42979-239.477532-239.477533 0-48.561905 14.543972-93.785817 39.485923-131.569743-64.955873 42.877916-107.907789 116.507772-107.907789 199.99161 0 132.047742 107.42979 239.477532 239.477532 239.477532 83.485837 0 157.117693-42.951916 199.991609-107.907789-37.783926 24.941951-83.007838 39.485923-131.569743 39.485923z" fill="#11BBA3" p-id="4632"></path><path d="M677.548677 242.673526a17.109967 17.109967 0 0 0-5.673989-12.267976c-43.975914-39.459923-100.753803-61.19388-159.873688-61.19388-50.241902 0-98.339808 15.39597-139.095728 44.521913a17.105967 17.105967 0 0 0-4.721991 22.717955l26.515948 44.193914a17.119967 17.119967 0 0 0 9.257982 7.427985l43.201916 14.397972 14.399972 43.203916a17.079967 17.079967 0 0 0 6.739986 8.821983l47.535908 31.689938 32.179937 64.361874c3.217994 6.433987 10.33798 10.22398 17.469966 9.313982 6.913986-0.883998 12.731975-6.051988 14.423971-12.815975l17.105967-68.421867c0.339999-1.357997 0.511999-2.749995 0.511999-4.147991v-44.231914l75.015853-75.013853a17.109967 17.109967 0 0 0 5.005991-12.557976zM746.128543 358.1933a17.107967 17.107967 0 0 0-20.081961-13.181974l-63.451876 12.691975a17.105967 17.105967 0 0 0-13.417974 13.417974l-17.105967 85.527833a17.117967 17.117967 0 0 0 2.539996 12.843975l34.211933 51.3159c0.176 0.263999 0.359999 0.521999 0.547999 0.773998l14.709971 19.613962a17.099967 17.099967 0 0 0 14.201972 6.833987 17.099967 17.099967 0 0 0 13.763973-7.679985c25.79595-39.121924 39.429923-84.651835 39.429923-131.663743 0.004-16.959967-1.795996-33.945934-5.347989-50.493902zM472.779077 430.801159a17.113967 17.113967 0 0 0-8.739983-4.677991l-79.119846-15.821969-47.395907-63.193877a17.101967 17.101967 0 0 0-20.037961-5.619989l-30.79794 12.319976a17.103967 17.103967 0 0 0-10.491979 12.901975 241.633528 241.633528 0 0 0-3.673993 41.977918c0 45.91591 13.035975 90.533823 37.697926 129.027748a240.061531 240.061531 0 0 0 97.813809 86.76383 17.099967 17.099967 0 0 0 18.121965-2.047996l79.425845-63.541876a17.131967 17.131967 0 0 0 5.541989-7.947984l17.105966-51.3159a17.107967 17.107967 0 0 0-4.133992-17.507966l-51.315899-51.315899z" fill="#66BF00" p-id="4633"></path><path d="M341.239334 352.061312l-3.713993-4.95199a17.101967 17.101967 0 0 0-20.037961-5.619989l-30.79794 12.319976a17.103967 17.103967 0 0 0-10.491979 12.901975 241.633528 241.633528 0 0 0-3.673993 41.977918c0 45.91591 13.035975 90.533823 37.697926 129.027748a240.061531 240.061531 0 0 0 97.813809 86.76383 17.099967 17.099967 0 0 0 18.121965-2.047996l71.69986-57.361888c-87.977828-32.415937-151.845703-115.083775-156.617694-213.009584zM460.6851 254.735502h-17.105966a17.107967 17.107967 0 0 1 0-34.211933h17.105966a17.107967 17.107967 0 0 1 0 34.211933zM580.424866 288.947436h-17.105966a17.107967 17.107967 0 0 1 0-34.211934h17.105966a17.107967 17.107967 0 0 1 0 34.211934zM529.108967 357.369302h-17.105967a17.107967 17.107967 0 0 1 0-34.211933h17.105967a17.107967 17.107967 0 0 1 0 34.211933z" fill="#58AB23" p-id="4634"></path><path d="M477.791067 884.418273a17.055967 17.055967 0 0 1-12.095977-5.009991 17.103967 17.103967 0 0 1 0-24.191952l136.843733-136.843733a17.107967 17.107967 0 0 1 24.191953 24.191953l-136.843733 136.843732a17.063967 17.063967 0 0 1-12.095976 5.009991z" fill="#8C823F" p-id="4635"></path><path d="M546.212933 884.418273a17.049967 17.049967 0 0 1-12.095976-5.009991l-136.843733-136.843732a17.103967 17.103967 0 0 1 0-24.191953 17.107967 17.107967 0 0 1 24.189953 0l136.843733 136.843733a17.107967 17.107967 0 0 1-12.093977 29.201943z" fill="#8C823F" p-id="4636"></path><path d="M549.146927 699.190634c19.083963-19.083963 78.773846-29.417943 111.333783-33.763934 11.161978-1.489997 20.68396 8.033984 19.193963 19.193963-4.345992 32.559936-14.679971 92.24982-33.763935 111.333782-26.721948 26.721948-70.043863 26.721948-96.763811 0-26.719948-26.719948-26.719948-70.041863 0-96.763811z" fill="#66BF00" p-id="4637"></path><path d="M645.910738 778.848479c-26.721948 26.721948-70.043863 26.721948-96.763811 0a68.105867 68.105867 0 0 1-19.487961-39.827922c-2.535995 20.23996 3.947992 41.393919 19.487961 56.933888 26.721948 26.721948 70.043863 26.721948 96.763811 0 19.083963-19.083963 29.417943-78.773846 33.763935-111.333782a16.915967 16.915967 0 0 0-1.163998-8.789983c-4.89599 33.549934-15.041971 85.461833-32.599937 103.017799z" fill="#58AB23" p-id="4638"></path><path d="M602.538823 718.370597l-63.961875 63.963875a68.623866 68.623866 0 0 0 10.571979 13.619973 68.623866 68.623866 0 0 0 13.619974 10.57198l63.963875-63.961875a17.107967 17.107967 0 0 0-24.193953-24.193953z" fill="#58AB23" p-id="4639"></path><path d="M474.855073 699.190634c-19.083963-19.083963-78.773846-29.417943-111.333783-33.763934-11.161978-1.489997-20.68396 8.033984-19.193963 19.193963 4.345992 32.559936 14.679971 92.24982 33.763935 111.333782 26.721948 26.721948 70.043863 26.721948 96.763811 0 26.721948-26.719948 26.721948-70.041863 0-96.763811z" fill="#66BF00" p-id="4640"></path><path d="M378.091262 778.848479c26.721948 26.721948 70.043863 26.721948 96.763811 0a68.105867 68.105867 0 0 0 19.487961-39.827922c2.535995 20.23996-3.947992 41.393919-19.487961 56.933888-26.721948 26.721948-70.043863 26.721948-96.763811 0-19.083963-19.083963-29.417943-78.773846-33.763935-111.333782a16.915967 16.915967 0 0 1 1.163998-8.789983c4.89799 33.549934 15.043971 85.461833 32.599937 103.017799z" fill="#58AB23" p-id="4641"></path><path d="M421.465177 718.370597l63.961875 63.963875a68.623866 68.623866 0 0 1-10.571979 13.619973 68.623866 68.623866 0 0 1-13.619974 10.57198l-63.963875-63.961875a17.107967 17.107967 0 0 1 24.193953-24.193953z" fill="#58AB23" p-id="4642"></path></svg>